<?xml version="1.0" standalone="no"?>
<!DOCTYPE svg PUBLIC "-//W3C//DTD SVG 20010904//EN"
 "http://www.w3.org/TR/2001/REC-SVG-20010904/DTD/svg10.dtd">
<svg version="1.0" xmlns="http://www.w3.org/2000/svg"
 width="240.000000pt" height="240.000000pt" viewBox="0 0 240.000000 240.000000"
 preserveAspectRatio="xMidYMid meet">

<g transform="translate(0.000000,240.000000) scale(0.100000,-0.100000)"
fill="#ffffff" stroke="none">
<path d="M1025 2389 c-275 -53 -462 -143 -638 -309 -232 -218 -366 -504 -384
-815 -5 -85 -4 -93 18 -118 13 -15 38 -30 56 -33 27 -5 37 -1 61 23 26 26 30
37 36 118 16 199 69 357 170 508 229 345 638 519 1046 446 181 -33 386 -138
516 -266 l49 -48 -137 -5 c-127 -5 -138 -7 -162 -29 -37 -35 -35 -83 4 -122
l29 -30 247 3 246 3 24 29 25 28 -3 249 c-3 238 -4 249 -24 270 -30 29 -88 28
-120 -2 -23 -21 -24 -29 -24 -137 l0 -114 -62 57 c-145 133 -349 234 -563 281
-84 19 -340 27 -410 13z"/>
<path d="M1125 1704 c-44 -22 -415 -393 -431 -431 -17 -38 -18 -101 -3 -140
14 -38 395 -422 436 -439 39 -17 101 -18 140 -3 38 14 422 395 439 436 17 39
18 101 3 140 -14 38 -395 422 -436 439 -43 18 -111 18 -148 -2z m250 -334
l170 -170 -173 -173 -172 -172 -172 172 -173 173 170 170 c93 93 172 170 175
170 3 0 82 -77 175 -170z"/>
<path d="M2262 1263 c-26 -26 -30 -37 -36 -118 -16 -199 -69 -357 -170 -508
-229 -345 -638 -519 -1046 -446 -181 33 -386 138 -516 266 l-49 48 137 5 c127
5 138 7 162 29 37 35 35 83 -4 122 l-29 30 -247 -3 -246 -3 -24 -29 -25 -28 3
-249 c3 -238 4 -249 24 -270 30 -29 88 -28 120 2 23 21 24 29 24 137 l0 114
63 -57 c114 -105 264 -190 427 -243 146 -47 202 -56 370 -56 203 -1 330 25
509 105 153 69 345 226 451 369 137 184 224 425 237 650 5 102 5 106 -19 127
-13 13 -38 26 -56 29 -26 5 -36 1 -60 -23z"/>
</g>
</svg>
